<?xml version="1.0" encoding="utf-8"?>
<!-- Generator: Adobe Illustrator 28.2.0, SVG Export Plug-In . SVG Version: 6.00 Build 0)  -->
<svg version="1.1" id="Camada_1" xmlns="http://www.w3.org/2000/svg" xmlns:xlink="http://www.w3.org/1999/xlink" x="0px" y="0px"
	 viewBox="0 0 1440 480" style="enable-background:new 0 0 1440 480;" xml:space="preserve">
<style type="text/css">
	.st0{fill:#FFFFFF;}
</style>
<g id="Camada_1_00000060747317754959813870000010486894865060565128_">
</g>
<g id="Camada_2_00000107556921399758009110000017189302590935479470_">
	<path class="st0" d="M15.1,0l-15,15v465h345l15-15c0,0,0-315.7,0-465H15.1z M345,435.1H202.5V322.6h-30.1v112.5H29.9
		c0-74.7,0-164.8,0-255h142.5v60h30.1v-90H30v-135h315C345,148.7,345,388.1,345,435.1z"/>
</g>
<g>
	<path class="st0" d="M455.1,50.9H478c3.8,0,7.5,0.5,10.9,1.2c3.4,0.8,6.6,1.8,9.4,3.2c4.1,1.9,7.6,4.3,10.7,7.3
		c3.1,3,5.6,6.5,7.4,10.5c1.7,3.4,2.9,7.1,3.8,11c0.9,4.1,1.4,8.2,1.4,12.8v7.3c0,4.4-0.5,8.4-1.2,12.4c-0.8,3.9-2,7.5-3.6,10.8
		c-1.7,3.4-3.7,6.5-6.2,9.2c-2.5,2.8-5.3,5.2-8.3,7.1c-3.3,2-7,3.6-11,4.7c-4.2,1.1-8.5,1.7-13.3,1.7h-23L455.1,50.9L455.1,50.9z
		 M467.8,139.7h10.1c3.6,0,7-0.4,9.9-1.3c2.9-0.9,5.6-2.1,8-3.7c2.5-1.7,4.6-3.6,6.4-6.1c1.8-2.4,3.3-5.1,4.3-8
		c0.9-2.4,1.6-5.1,2-7.8c0.4-2.8,0.7-5.7,0.8-8.8v-7.4c0-3-0.3-6.1-0.8-8.9s-1.2-5.5-2.1-8c-1.2-3.2-2.9-6.1-4.9-8.7
		c-2-2.6-4.6-4.6-7.6-6.2c-2.1-1.1-4.5-2.1-7.2-2.8c-2.6-0.7-5.5-1-8.7-1h-10.1V139.7z"/>
	<path class="st0" d="M600,50.9v10.9h-23.7v77.3H600V150h-60v-10.9h23.2V61.9H540V51h60V50.9z"/>
	<path class="st0" d="M683,142c-1.7,1.5-3.5,2.8-5.4,3.8c-3.1,1.9-6.6,3.4-10.2,4.3c-3.6,0.9-7.5,1.3-11.6,1.3s-7.9-0.7-11.2-1.9
		c-3.4-1.2-6.5-2.9-9.2-5.1c-2.7-2.1-5.1-4.6-7.2-7.4c-2.1-2.8-3.7-6-5.1-9.3c-1.5-3.3-2.5-6.8-3.1-10.5c-0.7-3.6-1.1-7.3-1.1-11
		V94.7c0-3.7,0.3-7.3,1-11c0.6-3.6,1.6-7.2,2.8-10.6s2.8-6.5,4.7-9.3c1.9-2.9,4.2-5.4,6.9-7.5c2.6-2.1,5.6-3.7,9-5s7.1-1.8,11.4-1.8
		c4.6,0,8.9,0.7,12.8,2.1c3.9,1.5,7.3,3.5,10.2,6.1c2.9,2.7,5.3,5.8,7,9.7c1.7,3.8,2.8,8,3.3,12.6h-12.5c-0.5-2.8-1.2-5.5-2.4-8
		c-1-2.5-2.4-4.5-4-6.2s-3.8-3-6.1-4c-2.4-1-5.1-1.5-8.2-1.5c-3,0-5.6,0.6-8,1.6c-2.4,1-4.4,2.4-6.1,4.2c-1.7,1.7-3.1,3.7-4.3,6.1
		c-1.1,2.2-2,4.7-2.8,7.2c-0.7,2.6-1.2,5.2-1.6,7.8c-0.3,2.6-0.5,5.2-0.5,7.7v11.7c0,2.5,0.2,5.1,0.7,7.8c0.3,2.7,1,5.3,1.8,7.8
		c0.8,2.6,1.9,4.9,3.1,7.2c1.2,2.2,2.8,4.3,4.6,6s3.8,3.2,6.2,4.2c2.4,1,5.1,1.6,8,1.6c1.7,0,3.5,0,5.4-0.2c1.9-0.2,3.7-0.6,5.5-1.1
		c1.8-0.6,3.4-1.2,5-2.2c1.6-0.9,2.8-2.1,3.9-3.6l0.1-22.3h-20.1v-10.6h32.2l0.2,36.3C686.4,138.8,684.7,140.5,683,142z"/>
	<path class="st0" d="M767.4,50.9v10.9h-23.7v77.3h23.7V150h-60v-10.9h23.2V61.9h-23.2V51h60V50.9z"/>
	<path class="st0" d="M827.4,61.7v88.4h-12.3V61.7h-30.6V50.9h73.6v10.8H827.4z"/>
	<path class="st0" d="M889.1,124.4l-8,25.7h-12.6l32.1-99.2h10.6l31.5,99.2h-12.5l-7.9-25.7H889.1z M918.9,113.4l-13-43.1
		l-13.3,43.1H918.9z"/>
	<path class="st0" d="M1021.4,139.4v10.7h-61.1V50.9h12.6v88.5H1021.4z"/>
	<path class="st0" d="M517,272.4c-1.8,3.8-4,7.1-6.9,9.8c-2.8,2.8-6.2,4.9-10.1,6.4s-8.2,2.2-12.9,2.2c-4.1,0-7.8-0.6-11.1-1.7
		s-6.3-2.8-8.9-4.8s-4.8-4.5-6.8-7.2c-1.9-2.8-3.5-5.7-4.6-9.1c-1.2-3.3-2.2-6.8-2.8-10.2c-0.6-3.6-0.9-7.2-1-10.9V233
		c0-3.7,0.3-7.3,1-10.9c0.6-3.6,1.6-7,2.8-10.2c1.2-3.3,2.8-6.3,4.6-9.1c1.9-2.8,4.2-5.2,6.8-7.2c2.6-2,5.5-3.6,8.9-4.8
		c3.3-1.1,7.1-1.7,11.1-1.7c4.9,0,9.3,0.8,13.3,2.2c3.9,1.6,7.3,3.7,10.1,6.4c2.8,2.8,5.1,6.2,6.7,10.1s2.8,8.2,3.4,12.9H508
		c-0.4-3-1.1-5.7-2.1-8.3c-1-2.6-2.4-4.8-4.1-6.9c-1.7-1.9-3.7-3.5-6.2-4.6c-2.5-1.1-5.3-1.7-8.7-1.7c-3,0-5.6,0.4-8,1.5
		c-2.2,1-4.3,2.2-5.9,3.9c-1.7,1.7-3,3.6-4.2,5.8s-2,4.6-2.7,7.1c-0.7,2.5-1.1,5.1-1.5,7.6c-0.3,2.6-0.4,5.2-0.4,7.7v13.9
		c0,2.5,0.1,4.9,0.4,7.6c0.3,2.6,0.8,5.2,1.5,7.7c0.7,2.6,1.6,4.9,2.7,7.2s2.5,4.2,4.2,5.9s3.6,3,6,4c2.2,1,4.9,1.5,8,1.5
		c3.3,0,6.2-0.6,8.7-1.6c2.5-1,4.5-2.5,6.2-4.4c1.7-1.9,3-4,4.1-6.6c1-2.6,1.7-5.4,2.1-8.3h12.6C520,264.3,518.7,268.6,517,272.4z"
		/>
	<path class="st0" d="M603.6,256.4c-0.6,3.6-1.5,7.1-2.6,10.5s-2.7,6.5-4.5,9.4c-1.8,2.9-4,5.4-6.5,7.6c-2.6,2.1-5.5,3.9-8.8,5.2
		c-3.3,1.2-7,1.9-11,1.9c-4,0-7.8-0.7-11-1.9c-3.3-1.2-6.2-2.9-8.8-5.2c-2.6-2.1-4.7-4.7-6.6-7.6c-1.9-2.9-3.4-6.1-4.6-9.4
		c-1.2-3.4-2.1-6.9-2.7-10.5c-0.6-3.6-0.9-7.2-0.9-10.7v-11.4c0-3.5,0.3-7.1,0.9-10.7c0.6-3.6,1.5-7.1,2.7-10.5
		c1.1-3.4,2.7-6.5,4.5-9.4c1.8-2.9,4-5.5,6.5-7.8c2.6-2.1,5.5-3.9,8.8-5.2c3.3-1.2,7-1.9,11-1.9s7.8,0.7,11.1,1.9
		c3.3,1.2,6.2,2.9,8.8,5.2c2.6,2.1,4.7,4.7,6.5,7.7s3.4,6.1,4.6,9.4c1.1,3.4,2,6.9,2.6,10.5c0.6,3.6,0.9,7.2,0.9,10.8v11.4
		C604.5,249.2,604.2,252.8,603.6,256.4z M591.6,226.8c-0.2-2.6-0.7-5.2-1.3-7.6c-0.7-2.5-1.6-4.8-2.7-7.2c-1.1-2.2-2.5-4.3-4-6.1
		c-1.7-1.7-3.6-3.2-5.7-4.2c-2.2-1-4.8-1.6-7.8-1.6s-5.5,0.6-7.7,1.6c-2.2,1-4.2,2.5-5.7,4.2c-1.7,1.8-3,3.8-4,6.1
		c-1.1,2.2-1.9,4.7-2.6,7.2c-0.7,2.6-1.1,5.1-1.5,7.6c-0.3,2.6-0.5,5.1-0.6,7.3v11.5c0,2.4,0.2,4.7,0.6,7.3c0.3,2.6,0.8,5.2,1.5,7.6
		c0.7,2.6,1.6,5,2.7,7.3c1.1,2.4,2.5,4.4,4,6.1c1.7,1.8,3.6,3.1,5.7,4.3c2.2,1,4.8,1.6,7.8,1.6c2.9,0,5.5-0.6,7.8-1.6
		c2.2-1,4.2-2.5,5.8-4.3c1.6-1.7,2.9-3.7,3.9-6.1c1-2.2,1.9-4.7,2.6-7.2c0.7-2.5,1.1-5.1,1.3-7.6c0.2-2.6,0.5-5.1,0.5-7.4v-11.5
		C592,231.9,591.9,229.4,591.6,226.8z"/>
	<path class="st0" d="M686.5,278.9v10.7h-61.1v-99.2H638v88.5H686.5z"/>
	<path class="st0" d="M770.2,278.9v10.7h-61.1v-99.2h12.6v88.5H770.2z"/>
	<path class="st0" d="M804.4,243.7v35.1h48.3v10.7h-60.9v-99.2h60.3v10.8h-47.7v31.8h41.4v10.7h-41.4V243.7z"/>
	<path class="st0" d="M935.5,272.4c-1.8,3.8-4,7.1-6.9,9.8c-2.8,2.8-6.2,4.9-10.1,6.4s-8.2,2.2-12.9,2.2c-4,0-7.8-0.6-11.1-1.7
		s-6.3-2.8-8.9-4.8c-2.6-2-4.8-4.5-6.8-7.2c-1.9-2.8-3.5-5.7-4.6-9.1c-1.2-3.3-2.2-6.8-2.8-10.2c-0.6-3.6-0.9-7.2-1-10.9V233
		c0-3.7,0.3-7.3,1-10.9c0.6-3.6,1.6-7,2.8-10.2c1.2-3.3,2.8-6.3,4.6-9.1c1.9-2.8,4.2-5.2,6.8-7.2c2.6-2,5.5-3.6,8.9-4.8
		c3.3-1.1,7.1-1.7,11.1-1.7c5,0,9.3,0.8,13.3,2.2c3.9,1.6,7.3,3.7,10.1,6.4c2.8,2.8,5.1,6.2,6.8,10.1s2.8,8.2,3.4,12.9h-12.6
		c-0.5-3-1.1-5.7-2.1-8.3c-1-2.6-2.4-4.8-4-6.9c-1.7-1.9-3.7-3.5-6.2-4.6c-2.5-1.1-5.3-1.7-8.7-1.7c-3,0-5.6,0.4-8,1.5
		c-2.2,1-4.3,2.2-5.8,3.9c-1.7,1.7-3,3.6-4.2,5.8s-2,4.6-2.7,7.1c-0.7,2.5-1.1,5.1-1.5,7.6c-0.3,2.6-0.5,5.2-0.5,7.7v13.9
		c0,2.5,0.1,4.9,0.5,7.6c0.3,2.6,0.8,5.2,1.5,7.7c0.7,2.6,1.6,4.9,2.7,7.2s2.5,4.2,4.2,5.9s3.6,3,6,4c2.2,1,5,1.5,8,1.5
		c3.3,0,6.2-0.6,8.7-1.6c2.5-1,4.5-2.5,6.2-4.4c1.7-1.9,3-4,4-6.6c1-2.6,1.7-5.4,2.1-8.3h12.6C938.5,264.3,937.3,268.6,935.5,272.4z
		"/>
	<path class="st0" d="M994.8,201.2v88.4h-12.3v-88.4H952v-10.8h73.6v10.8H994.8z"/>
	<path class="st0" d="M1102.3,190.4v10.9h-23.7v77.3h23.7v10.9h-60v-10.9h23.2v-77.3h-23.2v-10.9H1102.3z"/>
	<path class="st0" d="M1189.6,256.4c-0.6,3.6-1.5,7.1-2.6,10.5s-2.7,6.5-4.5,9.4c-1.8,2.9-4,5.4-6.5,7.6c-2.6,2.1-5.5,3.9-8.8,5.2
		c-3.3,1.2-7,1.9-11,1.9c-4.1,0-7.8-0.7-11-1.9c-3.3-1.2-6.2-2.9-8.8-5.2c-2.6-2.1-4.7-4.7-6.6-7.6c-1.9-2.9-3.4-6.1-4.6-9.4
		s-2.1-6.9-2.7-10.5c-0.6-3.6-0.9-7.2-0.9-10.7v-11.4c0-3.5,0.3-7.1,0.9-10.7c0.6-3.6,1.5-7.1,2.7-10.5c1.1-3.4,2.7-6.5,4.5-9.4
		s4-5.5,6.5-7.8c2.6-2.1,5.5-3.9,8.8-5.2c3.3-1.2,7-1.9,11-1.9c4.1,0,7.8,0.7,11.1,1.9c3.3,1.2,6.2,2.9,8.8,5.2
		c2.6,2.1,4.7,4.7,6.5,7.7c1.8,2.9,3.4,6.1,4.6,9.4c1.1,3.4,2,6.9,2.6,10.5c0.6,3.6,0.9,7.2,0.9,10.8v11.4
		C1190.5,249.2,1190.1,252.8,1189.6,256.4z M1177.5,226.8c-0.2-2.6-0.7-5.2-1.3-7.6c-0.7-2.5-1.6-4.8-2.7-7.2
		c-1.1-2.2-2.5-4.3-4-6.1c-1.7-1.7-3.6-3.2-5.7-4.2c-2.2-1-4.8-1.6-7.8-1.6c-2.9,0-5.5,0.6-7.7,1.6c-2.2,1-4.2,2.5-5.7,4.2
		c-1.7,1.8-3,3.8-4,6.1c-1.1,2.2-1.9,4.7-2.6,7.2c-0.7,2.6-1.1,5.1-1.5,7.6c-0.3,2.6-0.4,5.1-0.6,7.3v11.5c0,2.4,0.2,4.7,0.6,7.3
		c0.3,2.6,0.8,5.2,1.5,7.6c0.7,2.6,1.6,5,2.7,7.3c1.1,2.4,2.5,4.4,4.1,6.1c1.7,1.8,3.6,3.1,5.7,4.3c2.2,1,4.8,1.6,7.8,1.6
		c2.9,0,5.5-0.6,7.8-1.6c2.2-1,4.2-2.5,5.8-4.3c1.6-1.7,2.9-3.7,3.9-6.1c1-2.2,1.9-4.7,2.6-7.2c0.7-2.5,1.1-5.1,1.3-7.6
		c0.2-2.6,0.5-5.1,0.5-7.4v-11.5C1178,231.9,1177.9,229.4,1177.5,226.8z"/>
	<path class="st0" d="M1259.1,289.6l-38.5-74.1l-0.2,74.1h-12.7v-99.2h12.8l38.5,74l0.2-74h12.7v99.2H1259.1z"/>
	<path class="st0" d="M1343.2,256.9c-1.3-2.1-3.2-3.8-5.4-5.3c-2.1-1.3-4.6-2.6-7.2-3.5s-5.2-1.8-7.5-2.6c-3.5-1.1-7.1-2.5-10.7-4.2
		c-3.6-1.6-6.9-3.6-9.8-5.8c-3-2.4-5.4-5.1-7.3-8.2c-1.9-3.2-2.8-6.9-2.8-11.1s0.9-8.1,2.8-11.5c1.9-3.4,4.4-6.2,7.4-8.6
		c3-2.4,6.5-4.1,10.3-5.3c3.8-1.2,7.8-1.8,11.7-1.8c4.3,0,8.4,0.7,12.5,2.1c4,1.5,7.5,3.5,10.6,6.1c3,2.6,5.5,5.7,7.4,9.4
		c1.9,3.7,2.8,7.8,2.9,12.4h-12.9c-0.3-2.8-1-5.5-2.1-7.8c-1-2.4-2.5-4.4-4.2-6.1s-3.8-3-6.2-3.9c-2.4-0.9-5.1-1.4-8.1-1.4
		c-2.4,0-4.7,0.3-7.1,1c-2.2,0.7-4.3,1.7-6.1,3c-1.8,1.4-3.3,3-4.3,5.1c-1,2-1.6,4.3-1.6,7c0,2.8,0.8,5.3,2.1,7.2
		c1.5,2,3.2,3.6,5.4,5.1c2.1,1.3,4.5,2.5,7,3.4c2.5,0.9,4.8,1.7,7.1,2.4c3.7,1.1,7.3,2.5,11,4.2c3.7,1.6,7.1,3.7,10.1,6.2
		c3,2.4,5.4,5.2,7.2,8.6c1.8,3.4,2.8,7.2,2.8,11.7s-1,8.3-2.9,11.7c-2,3.3-4.5,6.1-7.7,8.2c-3.2,2.2-6.6,3.9-10.6,5.1
		s-7.9,1.7-11.8,1.7c-4.7,0-9.3-0.8-14-2.4c-4.6-1.6-8.5-3.9-11.9-6.9c-3-2.6-5.4-5.6-7.1-9.1c-1.8-3.5-2.7-7.3-2.8-11.6h12.8
		c0.5,3,1.2,5.9,2.5,8.2c1.2,2.4,2.9,4.4,4.9,6.1c2,1.7,4.3,2.9,6.9,3.8c2.6,0.8,5.5,1.2,8.5,1.2c2.5,0,4.8-0.3,7.2-0.9
		c2.4-0.6,4.5-1.6,6.4-2.9c1.9-1.2,3.4-2.9,4.6-4.8c1.1-2,1.8-4.3,1.8-7.1C1345.4,261.5,1344.7,258.9,1343.2,256.9z"/>
	<path class="st0" d="M470.6,403.4l-8,25.6H450l32.1-99.2h10.6l31.5,99.2h-12.5l-7.9-25.6H470.6z M500.3,392.4l-13-43.1L474,392.4
		H500.3z"/>
	<path class="st0" d="M589.4,429.1L550.9,355l-0.2,74.1H538v-99.2h12.8l38.5,74l0.2-74h12.7v99.2L589.4,429.1L589.4,429.1z"/>
	<path class="st0" d="M622.5,329.9h23c3.8,0,7.5,0.4,10.9,1.2c3.4,0.8,6.6,1.8,9.5,3.1c4,1.9,7.7,4.3,10.7,7.3
		c3.2,3,5.6,6.5,7.4,10.5c1.7,3.4,2.9,7.1,3.8,11c0.9,4.1,1.4,8.2,1.4,12.8v7.3c0,4.4-0.5,8.4-1.2,12.4s-2,7.5-3.6,10.8
		c-1.7,3.4-3.7,6.5-6.2,9.2c-2.5,2.8-5.3,5.2-8.3,7.1c-3.3,2-7,3.6-11,4.7c-4.2,1.1-8.5,1.7-13.3,1.7h-23L622.5,329.9L622.5,329.9z
		 M635.3,418.7h10.1c3.6,0,7-0.4,9.9-1.4c2.9-0.9,5.6-2.1,8-3.7c2.5-1.7,4.6-3.6,6.4-6.1c1.8-2.4,3.3-5.1,4.3-8
		c0.9-2.4,1.6-5.1,2-7.8c0.5-2.8,0.7-5.7,0.8-8.8v-7.4c0-3-0.3-6.1-0.8-8.9s-1.2-5.5-2.1-8c-1.2-3.1-2.9-6.1-5-8.7
		c-2-2.6-4.6-4.6-7.7-6.2c-2.1-1.1-4.5-2.1-7.2-2.8c-2.6-0.7-5.5-1-8.7-1h-10.1L635.3,418.7L635.3,418.7z"/>
	<path class="st0" d="M804.1,388.6v40.5h-12.5v-99.2h29.1c4.6,0.1,9,0.8,13,2c4,1.2,7.7,3,10.8,5.5c3,2.5,5.4,5.5,7.2,9.2
		c1.8,3.7,2.6,8.1,2.6,13c0,3.3-0.5,6.2-1.4,8.9c-0.9,2.7-2.2,5.1-3.8,7.3s-3.6,4.2-5.9,5.7c-2.2,1.7-4.7,3.1-7.5,4.3l21,42.4
		l-0.1,0.8h-13.3l-19.5-40.5L804.1,388.6L804.1,388.6z M821,378.2c2.8,0,5.5-0.4,8-1.4c2.5-0.8,4.7-2,6.6-3.6
		c1.9-1.6,3.4-3.5,4.4-5.9c1.1-2.2,1.7-4.9,1.7-8c0-3.1-0.6-6-1.6-8.3c-1-2.4-2.5-4.4-4.4-6.1c-1.9-1.6-4-2.8-6.6-3.6
		c-2.6-0.8-5.4-1.2-8.4-1.4h-16.5v38H821V378.2z"/>
	<path class="st0" d="M888.1,383.2v35.1h48.3V429h-60.9v-99.2h60.3v10.8h-47.7v31.8h41.4v10.7h-41.4V383.2z"/>
	<path class="st0" d="M1008.5,396.4c-1.4-2.1-3.1-3.8-5.4-5.3c-2.1-1.5-4.6-2.6-7.2-3.5c-2.6-0.9-5.2-1.8-7.5-2.6
		c-3.5-1.1-7.1-2.5-10.7-4.2c-3.6-1.6-6.9-3.6-9.8-5.9c-3-2.4-5.4-5.1-7.3-8.2c-1.9-3.1-2.8-6.9-2.8-11.1c0-4.3,0.9-8.1,2.8-11.5
		c1.9-3.4,4.4-6.2,7.4-8.5c3-2.4,6.5-4.1,10.4-5.3c3.8-1.2,7.8-1.8,11.7-1.8c4.3,0,8.4,0.7,12.5,2.1c4,1.5,7.5,3.5,10.6,6.1
		c3,2.6,5.5,5.7,7.4,9.5c1.9,3.7,2.8,7.8,2.9,12.4h-12.9c-0.3-2.8-1-5.5-2.1-7.8c-1-2.4-2.5-4.4-4.2-6.1s-3.8-3-6.2-3.9
		c-2.4-0.9-5.1-1.4-8.1-1.4c-2.4,0-4.7,0.3-7.1,1c-2.2,0.7-4.3,1.7-6.1,3c-1.8,1.4-3.3,3-4.3,5.1c-1,2-1.6,4.3-1.6,7
		c0,2.8,0.8,5.3,2.1,7.2c1.5,2,3.1,3.6,5.4,5.1c2.1,1.4,4.5,2.5,7,3.4c2.5,0.9,4.8,1.7,7.1,2.4c3.7,1.1,7.3,2.5,11,4.2
		c3.7,1.6,7.1,3.7,10.1,6.2c3,2.4,5.4,5.2,7.2,8.6c1.8,3.4,2.8,7.2,2.8,11.7s-1,8.3-2.9,11.7c-2,3.3-4.5,6.1-7.6,8.2
		c-3.2,2.2-6.6,3.9-10.6,5.1s-7.9,1.7-11.8,1.7c-4.7,0-9.3-0.8-14-2.4c-4.6-1.6-8.5-3.9-11.9-6.9c-3-2.6-5.4-5.6-7.1-9.1
		c-1.8-3.5-2.7-7.3-2.8-11.6h12.8c0.5,3,1.2,5.9,2.5,8.2c1.2,2.4,2.9,4.4,5,6.1s4.3,2.9,6.9,3.8c2.6,0.8,5.5,1.2,8.5,1.2
		c2.5,0,4.8-0.3,7.2-0.9s4.5-1.6,6.4-2.9c1.9-1.2,3.4-2.9,4.6-4.8c1.1-2,1.8-4.3,1.8-7.1C1010.5,401,1009.8,398.4,1008.5,396.4z"/>
	<path class="st0" d="M1055.5,383.2v35.1h48.3V429h-60.9v-99.2h60.3v10.8h-47.7v31.8h41.4v10.7h-41.4V383.2z"/>
	<path class="st0" d="M1140.3,403.4l-8,25.6h-12.6l32.1-99.2h10.6l31.5,99.2h-12.6l-7.9-25.6H1140.3z M1170,392.4l-13.1-43.1
		l-13.3,43.1H1170z"/>
	<path class="st0" d="M1222.8,388.6v40.5h-12.5v-99.2h29.1c4.6,0.1,9,0.8,13,2c4,1.2,7.7,3,10.8,5.5c3,2.5,5.4,5.5,7.2,9.2
		c1.8,3.7,2.6,8.1,2.6,13c0,3.3-0.4,6.2-1.3,8.9c-0.9,2.7-2.2,5.1-3.8,7.3s-3.6,4.2-5.8,5.7c-2.2,1.7-4.7,3.1-7.5,4.3l21,42.4
		l-0.1,0.8h-13.3l-19.5-40.5L1222.8,388.6L1222.8,388.6z M1239.6,378.2c2.8,0,5.5-0.4,8-1.4c2.5-0.8,4.7-2,6.6-3.6s3.4-3.5,4.4-5.9
		c1.1-2.2,1.7-4.9,1.7-8c0-3.1-0.6-6-1.6-8.3c-1-2.4-2.5-4.4-4.4-6.1c-1.9-1.6-4.1-2.8-6.6-3.6c-2.6-0.8-5.4-1.2-8.4-1.4h-16.5v38
		h16.9V378.2z"/>
	<path class="st0" d="M1354.2,411.9c-1.8,3.8-4.1,7.1-6.9,9.8c-2.8,2.8-6.2,4.9-10.1,6.4s-8.2,2.2-12.9,2.2c-4,0-7.8-0.6-11.1-1.7
		s-6.3-2.8-8.9-4.8s-4.8-4.5-6.8-7.2c-1.9-2.8-3.5-5.7-4.6-9.1c-1.2-3.3-2.2-6.8-2.8-10.2c-0.6-3.6-0.9-7.2-1-10.9v-13.8
		c0-3.7,0.3-7.3,1-10.9c0.6-3.6,1.6-7,2.8-10.2c1.2-3.3,2.8-6.3,4.6-9.1c1.9-2.8,4.2-5.2,6.8-7.2c2.6-2,5.5-3.6,8.9-4.8
		c3.3-1.1,7.1-1.7,11.1-1.7c5,0,9.3,0.8,13.3,2.2c3.9,1.6,7.3,3.7,10.1,6.4c2.8,2.8,5.1,6.2,6.8,10.1s2.8,8.2,3.4,12.9h-12.6
		c-0.5-3-1.1-5.7-2.1-8.3s-2.4-4.8-4-6.9c-1.7-1.9-3.7-3.5-6.2-4.6c-2.5-1.1-5.3-1.7-8.7-1.7c-3,0-5.6,0.4-8,1.5
		c-2.2,1-4.3,2.2-5.8,3.9c-1.7,1.7-3,3.6-4.2,5.9s-2,4.6-2.7,7.1c-0.7,2.5-1.1,5.1-1.5,7.6s-0.4,5.2-0.4,7.6v13.9
		c0,2.5,0.1,5,0.4,7.6c0.3,2.6,0.8,5.2,1.5,7.6c0.7,2.6,1.6,4.9,2.7,7.2s2.5,4.2,4.2,5.9s3.6,3,6,4.1c2.2,1,5,1.5,8,1.5
		c3.3,0,6.2-0.6,8.7-1.6c2.5-1,4.5-2.5,6.2-4.4c1.7-1.9,3-4.1,4.1-6.6c1-2.6,1.7-5.4,2.1-8.3h12.6
		C1357.1,403.8,1356,408.1,1354.2,411.9z"/>
	<path class="st0" d="M1427.4,429.1v-45.8h-40.6v45.8H1375v-99.2h11.8v42.6h40.6v-42.6h11.9v99.2L1427.4,429.1L1427.4,429.1z"/>
</g>
</svg>
