<?xml version="1.0" encoding="utf-8"?>
<!-- Generator: Adobe Illustrator 28.2.0, SVG Export Plug-In . SVG Version: 6.00 Build 0)  -->
<svg version="1.1" id="Camada_1" xmlns="http://www.w3.org/2000/svg" xmlns:xlink="http://www.w3.org/1999/xlink" x="0px" y="0px"
	 viewBox="0 0 3240 480" style="enable-background:new 0 0 3240 480;" xml:space="preserve">
<style type="text/css">
	.st0{fill:#FFFFFF;}
</style>
<g id="Camada_1_00000060747317754959813870000010486894865060565128_">
</g>
<g id="Camada_2_00000107556921399758009110000017189302590935479470_">
	<path class="st0" d="M15.1,0l-15,15v465h345l15-15c0,0,0-315.7,0-465H15.1z M345,435.1H202.5V322.6h-30.1v112.5H29.9
		c0-74.7,0-164.8,0-255h142.5v60h30.1v-90H30v-135h315C345,148.7,345,388.1,345,435.1z"/>
</g>
<g>
	<path class="st0" d="M526.5,34.7h42.2c7.3,0,14.3,0.8,20.7,2.5c6.5,1.7,12.4,4,17.7,7c5.8,3,10.9,6.9,15.4,11.5s8.3,9.8,11.3,15.5
		c3.1,5.9,5.5,12.5,7.3,19.6c1.7,7.1,2.6,14.7,2.6,22.7v13.4c0,7.7-0.8,15.1-2.4,22c-1.6,6.9-3.9,13.2-6.9,18.9
		c-2.9,5.5-6.4,10.6-10.5,15.1s-8.7,8.4-13.7,11.6c-5.6,3.5-11.9,6.2-18.7,8.1c-6.8,1.9-14.2,2.8-22,2.8h-43.1V34.7H526.5z
		 M555,182.5h14.6c5,0,9.6-0.6,13.8-1.8s7.9-2.9,11.3-5.2c3.4-2.3,6.5-5.3,9.2-8.8c2.7-3.6,4.9-7.6,6.6-12.2
		c1.5-3.9,2.6-8.2,3.4-12.8c0.8-4.6,1.2-9.5,1.2-14.8v-13.6c0-5.2-0.4-10-1.2-14.6s-1.9-8.9-3.4-12.8c-1.9-4.8-4.4-9.1-7.5-12.9
		c-3.1-3.9-6.8-7-11.1-9.4c-3.1-1.8-6.6-3.2-10.5-4.2c-3.9-1-8.1-1.5-12.7-1.6H555V182.5z"/>
	<path class="st0" d="M776.6,34.7V58h-36.4v124.1h36.4v23.2H676.1v-23.2h35.6V58h-35.6V34.7H776.6z"/>
	<path class="st0" d="M921.7,192.5c-3.4,2.6-7.1,4.9-11.4,7c-5.3,2.6-11.1,4.6-17.3,6c-6.3,1.4-12.9,2.2-20,2.2
		c-6.6,0-12.7-0.9-18.4-2.6c-5.7-1.7-10.9-4.1-15.5-7.3c-4.6-3.1-8.7-6.9-12.4-11.4s-6.7-9.4-9.1-14.9c-2.7-5.7-4.8-12-6.2-18.9
		s-2.1-14.1-2.2-21.7v-21.8c0.1-7.3,0.8-14.4,2.1-21.1s3.2-12.9,5.7-18.6c2.4-5.4,5.3-10.3,8.7-14.8s7.2-8.3,11.5-11.6
		c4.7-3.4,9.9-6.1,15.5-8c5.7-1.9,11.8-2.8,18.5-2.8c9,0,17,1.2,23.9,3.6c7,2.4,12.9,5.9,17.8,10.4c5,4.6,8.9,10.2,11.8,16.7
		c2.9,6.5,4.7,13.8,5.5,22h-27.7c-0.7-4.5-1.8-8.5-3.2-12.1s-3.3-6.7-5.6-9.2c-2.5-2.7-5.6-4.7-9.2-6.1s-7.9-2.1-12.8-2.1
		c-3.6,0-6.9,0.6-10,1.8c-3,1.2-5.8,2.9-8.2,5c-2.8,2.4-5.3,5.4-7.3,9c-2.1,3.6-3.8,7.5-5.1,11.9c-1.2,3.8-2,7.9-2.6,12.3
		c-0.5,4.4-0.8,8.9-0.8,13.5v22c0,5.4,0.4,10.5,1.1,15.4c0.7,4.8,1.9,9.3,3.3,13.5c1.2,3.1,2.6,6.1,4.2,8.8c1.6,2.7,3.5,5.2,5.7,7.3
		c2.7,2.7,5.9,4.8,9.6,6.3c3.6,1.5,7.8,2.3,12.4,2.3c2.7,0,5.5-0.2,8.3-0.5s5.5-0.9,8.1-1.7c2.5-0.8,4.8-1.8,6.9-3
		c2.1-1.2,3.8-2.6,5-4.3l0.1-34.1h-30.9V119H930l0.2,65.3C927.9,187.1,925.1,189.9,921.7,192.5z"/>
	<path class="st0" d="M1064.7,34.7V58h-36.4v124.1h36.4v23.2H964.1v-23.2h35.6V58h-35.6V34.7H1064.7z"/>
	<path class="st0" d="M1172.4,58v147.3h-28V58h-52.3V34.7H1225V58H1172.4z"/>
	<path class="st0" d="M1277.2,166.1l-11.6,39.3h-29.3l55.5-170.6h25l54.6,170.6h-29.2l-11.5-39.3H1277.2z M1323.9,141.9l-19.6-67.5
		l-19.9,67.5H1323.9z"/>
	<path class="st0" d="M1504.1,182.1v23.2h-109.7V34.7h28.2v147.4L1504.1,182.1L1504.1,182.1z"/>
	<path class="st0" d="M1789.3,175.4c-3.1,6.8-7.2,12.5-12.3,17.3c-5.2,4.8-11.3,8.6-18.3,11.2c-7.1,2.6-14.9,3.9-23.5,3.9
		c-7,0-13.5-1-19.4-2.9c-5.9-1.9-11.2-4.6-15.8-8.1c-4.5-3.3-8.3-7.2-11.7-11.9c-3.3-4.6-6.1-9.7-8.4-15.3c-2.3-5.5-4-11.4-5.1-17.8
		c-1.1-6.4-1.7-13.1-1.7-20v-23.3c0-6.6,0.5-13,1.6-19.2c1.1-6.2,2.7-12,4.9-17.5c2.3-6.1,5.4-11.6,9.1-16.6s8-9.2,12.8-12.7
		c4.6-3.2,9.7-5.7,15.3-7.5c5.6-1.8,11.7-2.7,18.3-2.7c9,0,17,1.3,24.1,4c7.1,2.7,13.1,6.4,18.1,11.2c5.1,4.9,9.1,10.9,12,17.8
		c2.9,7,4.8,14.7,5.7,23.2h-28.1c-0.5-5.1-1.4-9.7-2.9-13.8c-1.4-4.1-3.4-7.6-5.9-10.5c-2.6-2.9-5.7-5.1-9.5-6.6s-8.2-2.3-13.5-2.3
		c-3.7,0-7,0.5-9.9,1.5c-2.9,1-5.5,2.5-7.8,4.3c-3.1,2.3-5.7,5.2-7.8,8.8c-2.1,3.6-3.8,7.7-5.1,12.1c-1,3.9-1.8,8.1-2.3,12.5
		s-0.8,8.9-0.8,13.5v23.6c0,5.7,0.3,11.1,1,16.1s1.7,9.6,3.1,13.7c1.1,3.4,2.5,6.6,4.2,9.4c1.7,2.8,3.7,5.2,6,7.3
		c2.4,2.2,5.2,3.8,8.4,5c3.2,1.1,6.8,1.7,10.8,1.7c4.8,0,9.1-0.7,12.9-2.1s7-3.5,9.6-6.2c2.6-2.7,4.6-6,6.2-10c1.6-4,2.6-8.6,3-13.7
		h28.2C1794.4,161.1,1792.5,168.6,1789.3,175.4z"/>
	<path class="st0" d="M1937.9,151.3c-1.2,6.4-3,12.5-5.2,18.2c-2.4,5.7-5.4,11-9,15.8c-3.6,4.8-7.7,8.9-12.4,12.4
		c-4.5,3.1-9.6,5.6-15.1,7.4s-11.5,2.7-18.1,2.7c-6.8,0-13-1-18.7-2.9s-10.7-4.6-15.2-7.9c-4.5-3.4-8.5-7.6-11.9-12.4
		c-3.4-4.8-6.2-10.2-8.5-15.9c-2.2-5.5-3.8-11.5-4.9-17.8c-1.1-6.3-1.6-12.8-1.6-19.4V109c0-7,0.6-13.7,1.8-20.2s2.9-12.6,5.3-18.4
		c2.3-5.5,5.1-10.6,8.4-15.3c3.3-4.6,7.2-8.7,11.8-12.1c4.4-3.4,9.4-6,14.9-7.8c5.6-1.8,11.7-2.8,18.5-2.8s13,0.9,18.8,2.8
		c5.7,1.9,10.8,4.5,15.4,7.9c4.5,3.4,8.5,7.3,11.8,11.8c3.4,4.5,6.2,9.5,8.4,14.9c2.5,5.8,4.4,12,5.6,18.6s1.9,13.5,1.9,20.6v22.5
		C1939.7,138.2,1939.1,144.9,1937.9,151.3z M1910.6,96c-0.4-4.1-1.2-8.1-2.2-11.8c-1.2-4.3-2.7-8.2-4.6-11.8c-1.9-3.6-4.2-6.6-7-9.1
		c-2.4-2.2-5.2-3.9-8.3-5.2c-3.1-1.2-6.7-1.9-10.7-1.9c-3.8,0-7.3,0.6-10.3,1.8s-5.7,2.9-8,5c-2.7,2.6-5,5.6-6.9,9.2
		c-1.9,3.6-3.3,7.5-4.3,11.9c-0.9,3.8-1.6,7.7-2.1,11.9c-0.4,4.2-0.6,8.4-0.6,12.6v22.7c0,4.1,0.2,8.2,0.6,12.3
		c0.4,4.1,1.1,8,2,11.7c1,4.2,2.4,8.1,4.2,11.8c1.8,3.7,3.9,6.7,6.4,9.2c2.4,2.3,5.2,4.2,8.4,5.6c3.2,1.4,6.8,2.1,11,2.1
		c4,0,7.6-0.7,10.8-2c3.2-1.3,6-3.1,8.4-5.4c2.7-2.6,5-5.6,6.9-9.2c1.8-3.6,3.3-7.5,4.4-11.8c0.9-3.8,1.6-7.7,2.1-11.8
		c0.4-4.1,0.7-8.3,0.8-12.5v-22.7C1911.3,104.3,1911,100.1,1910.6,96z"/>
	<path class="st0" d="M2080.2,182.1v23.2h-109.7V34.7h28.2v147.4L2080.2,182.1L2080.2,182.1z"/>
	<path class="st0" d="M2224.2,182.1v23.2h-109.7V34.7h28.2v147.4L2224.2,182.1L2224.2,182.1z"/>
	<path class="st0" d="M2285.9,128.8v53.3h82.4v23.2h-110.6V34.7h110V58h-81.8v48h70.5v22.7h-70.5V128.8z"/>
	<path class="st0" d="M2509.5,175.4c-3.1,6.8-7.2,12.5-12.3,17.3c-5.2,4.8-11.3,8.6-18.3,11.2c-7.1,2.6-14.9,3.9-23.5,3.9
		c-7,0-13.5-1-19.4-2.9s-11.2-4.6-15.8-8.1c-4.5-3.3-8.3-7.2-11.7-11.9c-3.3-4.6-6.1-9.7-8.4-15.3c-2.3-5.5-4-11.4-5.1-17.8
		c-1.1-6.4-1.7-13.1-1.7-20v-23.3c0-6.6,0.5-13,1.6-19.2s2.7-12,4.9-17.5c2.3-6.1,5.4-11.6,9.1-16.6c3.7-5,8-9.2,12.8-12.7
		c4.6-3.2,9.7-5.7,15.3-7.5s11.7-2.7,18.3-2.7c9,0,17,1.3,24.1,4s13.1,6.4,18.1,11.2c5.1,4.9,9.1,10.9,12,17.8
		c2.9,7,4.8,14.7,5.7,23.2h-28.1c-0.5-5.1-1.4-9.7-2.9-13.8c-1.4-4.1-3.4-7.6-5.9-10.5c-2.6-2.9-5.7-5.1-9.5-6.6s-8.2-2.3-13.5-2.3
		c-3.7,0-7,0.5-9.9,1.5s-5.5,2.5-7.8,4.3c-3.1,2.3-5.7,5.2-7.8,8.8c-2.1,3.6-3.8,7.7-5.1,12.1c-1,3.9-1.8,8.1-2.3,12.5
		s-0.8,8.9-0.8,13.5v23.6c0,5.7,0.3,11.1,1,16.1s1.7,9.6,3.1,13.7c1.1,3.4,2.5,6.6,4.2,9.4c1.7,2.8,3.7,5.2,6,7.3
		c2.4,2.2,5.2,3.8,8.4,5c3.2,1.1,6.8,1.7,10.8,1.7c4.8,0,9.1-0.7,12.9-2.1s7-3.5,9.6-6.2s4.6-6,6.2-10c1.6-4,2.6-8.6,3-13.7h28.2
		C2514.5,161.1,2512.6,168.6,2509.5,175.4z"/>
	<path class="st0" d="M2612.6,58v147.3h-28V58h-52.3V34.7h132.9V58H2612.6z"/>
	<path class="st0" d="M2792.9,34.7V58h-36.4v124.1h36.4v23.2h-100.5v-23.2h35.6V58h-35.6V34.7H2792.9z"/>
	<path class="st0" d="M2946,151.3c-1.2,6.4-3,12.5-5.2,18.2c-2.4,5.7-5.4,11-9,15.8s-7.7,8.9-12.4,12.4c-4.5,3.1-9.6,5.6-15.1,7.4
		s-11.5,2.7-18.1,2.7c-6.8,0-13-1-18.7-2.9s-10.7-4.6-15.2-7.9c-4.5-3.4-8.5-7.6-11.9-12.4c-3.4-4.8-6.2-10.2-8.5-15.9
		c-2.2-5.5-3.8-11.5-4.9-17.8c-1.1-6.3-1.6-12.8-1.6-19.4V109c0-7,0.6-13.7,1.8-20.2s2.9-12.6,5.3-18.4c2.3-5.5,5.1-10.6,8.4-15.3
		c3.3-4.6,7.2-8.7,11.8-12.1c4.4-3.4,9.4-6,14.9-7.8c5.6-1.8,11.7-2.8,18.5-2.8s13,0.9,18.8,2.8c5.7,1.9,10.8,4.5,15.4,7.9
		c4.5,3.4,8.5,7.3,11.8,11.8c3.4,4.5,6.2,9.5,8.4,14.9c2.5,5.8,4.4,12,5.6,18.6c1.2,6.6,1.9,13.5,1.9,20.6v22.5
		C2947.9,138.2,2947.3,144.9,2946,151.3z M2918.7,96c-0.4-4.1-1.2-8.1-2.2-11.8c-1.2-4.3-2.7-8.2-4.6-11.8c-1.9-3.6-4.2-6.6-7-9.1
		c-2.4-2.2-5.2-3.9-8.3-5.2c-3.1-1.2-6.7-1.9-10.7-1.9c-3.8,0-7.3,0.6-10.3,1.8s-5.7,2.9-8,5c-2.7,2.6-5,5.6-6.9,9.2
		s-3.3,7.5-4.3,11.9c-0.9,3.8-1.6,7.7-2.1,11.9c-0.4,4.2-0.6,8.4-0.6,12.6v22.7c0,4.1,0.2,8.2,0.6,12.3c0.4,4.1,1.1,8,2,11.7
		c1,4.2,2.4,8.1,4.2,11.8s3.9,6.7,6.4,9.2c2.4,2.3,5.2,4.2,8.4,5.6c3.2,1.4,6.8,2.1,11,2.1c4,0,7.6-0.7,10.8-2s6-3.1,8.4-5.4
		c2.7-2.6,5-5.6,6.9-9.2c1.8-3.6,3.3-7.5,4.4-11.8c0.9-3.8,1.6-7.7,2.1-11.8c0.4-4.1,0.7-8.3,0.8-12.5v-22.7
		C2919.4,104.3,2919.2,100.1,2918.7,96z"/>
	<path class="st0" d="M3058.1,205.3l-55.4-117.4l-0.1,117.4h-28.5V34.7h28.6l55.1,117l0.2-117h28.4v170.6H3058.1z"/>
	<path class="st0" d="M3206.7,150.8c-1.6-3-3.9-5.8-6.9-8.2c-3.1-2.3-6.8-4.3-11.1-6.2c-4.3-1.8-9-3.5-14.2-5
		c-8-2.3-15.5-5.1-22.2-8.4c-6.8-3.3-12.5-7-17.3-11.2s-8.5-9-11.2-14.4s-4-11.4-4-18.1c0-7.3,1.6-13.8,4.7-19.6
		c3.1-5.8,7.3-10.8,12.7-14.9c5.3-4.1,11.5-7.2,18.6-9.3s14.5-3.2,22.3-3.2c8.3,0,16,1.3,23.1,3.8s13.4,6.1,18.7,10.6
		c5.3,4.6,9.5,10.1,12.6,16.5s4.6,13.4,4.6,21.2h-27.9c-0.4-4.3-1.3-8.2-2.8-11.8c-1.4-3.6-3.5-6.6-6-9.2c-2.7-2.5-5.9-4.5-9.7-5.9
		s-8.1-2.2-13.1-2.2c-4.3,0-8.3,0.6-11.9,1.7c-3.6,1.1-6.8,2.7-9.4,4.7c-2.7,2.1-4.7,4.6-6.2,7.6s-2.2,6.3-2.2,10
		c0.1,3.9,1.1,7.3,3,10.3c2,2.9,4.6,5.5,7.9,7.7c3.4,2.2,7.2,4.1,11.5,5.7s8.9,3.2,13.7,4.6c6,1.7,11.9,3.8,17.6,6.4
		c5.7,2.5,11,5.6,15.9,9.2c6,4.5,10.8,9.9,14.5,16.2c3.6,6.3,5.4,13.5,5.4,21.7c0,7.6-1.6,14.3-4.7,20c-3.2,5.8-7.4,10.6-12.7,14.4
		c-5.4,4-11.6,7-18.8,9c-7.1,2-14.6,3-22.5,3c-8.4,0-16.6-1.3-24.7-3.9c-8.1-2.6-15.2-6.4-21.2-11.4c-5.5-4.7-9.9-10.2-13.2-16.5
		c-3.2-6.3-4.9-13.6-5-21.8h28.1c0.4,5.2,1.5,9.8,3.3,13.7s4.4,7.1,7.6,9.6c3.1,2.6,6.8,4.5,11.1,5.7c4.3,1.3,8.9,1.9,14,1.9
		c4.3,0,8.3-0.5,12-1.5s6.9-2.5,9.7-4.6c2.7-2,4.8-4.4,6.4-7.3c1.6-2.9,2.4-6.2,2.4-10C3209.2,157.4,3208.4,153.9,3206.7,150.8z"/>
	<path class="st0" d="M557.1,406.1l-11.6,39.3h-29.3l55.5-170.6h25l54.6,170.6h-29.2l-11.5-39.3H557.1z M603.8,381.9l-19.6-67.5
		l-19.9,67.5H603.8z"/>
	<path class="st0" d="M753.8,445.3l-55.4-117.4l-0.1,117.4h-28.5V274.7h28.6l55.1,117l0.2-117H782v170.6L753.8,445.3L753.8,445.3z"
		/>
	<path class="st0" d="M814.6,274.7h42.2c7.3,0,14.3,0.8,20.7,2.5c6.5,1.7,12.4,4,17.7,7c5.8,3,10.9,6.9,15.4,11.5s8.3,9.8,11.3,15.5
		c3.1,5.9,5.5,12.5,7.3,19.6c1.7,7.1,2.6,14.7,2.6,22.7v13.4c0,7.7-0.8,15.1-2.4,22c-1.6,6.9-3.9,13.2-6.9,18.9
		c-2.9,5.5-6.4,10.6-10.5,15.1s-8.7,8.4-13.7,11.6c-5.6,3.5-11.9,6.2-18.7,8.1s-14.2,2.8-22,2.8h-43.1V274.7H814.6z M843.1,422.5
		h14.6c5,0,9.6-0.6,13.8-1.8c4.2-1.2,7.9-2.9,11.3-5.2c3.4-2.3,6.5-5.3,9.2-8.8c2.7-3.6,4.9-7.6,6.6-12.2c1.5-3.9,2.6-8.2,3.4-12.8
		c0.8-4.6,1.2-9.5,1.2-14.8v-13.6c0-5.2-0.4-10-1.2-14.6s-1.9-8.9-3.4-12.8c-1.9-4.8-4.4-9.1-7.5-12.9c-3.1-3.9-6.8-7-11.1-9.4
		c-3.1-1.8-6.6-3.2-10.5-4.2s-8.1-1.5-12.7-1.6h-13.7L843.1,422.5L843.1,422.5z"/>
	<path class="st0" d="M1132.4,379.1v66.2h-28.1V274.7h54.1c8.8,0.1,17,1.2,24.4,3.4c7.4,2.2,13.8,5.4,19.2,9.6
		c5.3,4.3,9.5,9.6,12.4,16c3,6.4,4.5,13.8,4.5,22.3c0,5.9-0.8,11.2-2.3,15.9c-1.5,4.8-3.7,9.1-6.4,12.9s-6,7.2-9.8,10.1
		s-8.1,5.4-12.8,7.5l36.4,71.4v1.5h-30.1l-32.7-66.2L1132.4,379.1L1132.4,379.1z M1158.8,356.1c5-0.1,9.5-0.8,13.5-2.3
		c4-1.4,7.4-3.5,10.3-6.3c2.5-2.3,4.5-5.2,5.9-8.7c1.4-3.4,2.1-7.3,2.1-11.7c0-4.9-0.8-9.2-2.3-12.9c-1.5-3.7-3.8-6.8-6.7-9.3
		c-2.7-2.3-6.1-4.1-10-5.3c-3.9-1.2-8.3-1.9-13.1-1.9h-26v58.5h26.3V356.1z"/>
	<path class="st0" d="M1277.7,368.8v53.3h82.4v23.2h-110.6V274.7h110V298h-81.8v48h70.5v22.7L1277.7,368.8L1277.7,368.8z"/>
	<path class="st0" d="M1478.5,390.8c-1.6-3-3.9-5.8-6.9-8.2c-3.1-2.3-6.8-4.3-11.1-6.2c-4.3-1.8-9-3.5-14.2-5
		c-8-2.3-15.5-5.1-22.2-8.4c-6.8-3.3-12.5-7-17.3-11.2s-8.5-9-11.2-14.4s-4-11.4-4-18.1c0-7.3,1.6-13.8,4.7-19.6
		c3.1-5.8,7.3-10.8,12.7-14.9c5.3-4.1,11.5-7.2,18.6-9.3c7.1-2.1,14.5-3.2,22.3-3.2c8.3,0,16,1.3,23.1,3.8
		c7.1,2.5,13.4,6.1,18.7,10.6c5.3,4.6,9.5,10.1,12.6,16.5c3.1,6.4,4.6,13.4,4.6,21.2H1481c-0.4-4.3-1.3-8.2-2.8-11.8
		c-1.4-3.6-3.5-6.6-6-9.2c-2.7-2.5-5.9-4.5-9.7-5.9s-8.1-2.2-13.1-2.2c-4.3,0-8.3,0.6-11.9,1.7c-3.6,1.1-6.8,2.7-9.4,4.7
		c-2.7,2.1-4.7,4.6-6.2,7.6s-2.2,6.3-2.2,10c0.1,3.9,1.1,7.3,3,10.3c2,2.9,4.6,5.5,7.9,7.7c3.4,2.2,7.2,4.1,11.5,5.7
		s8.9,3.2,13.7,4.6c6,1.7,11.9,3.8,17.6,6.4c5.7,2.5,11,5.6,15.9,9.2c6,4.5,10.8,9.9,14.5,16.2c3.6,6.3,5.4,13.5,5.4,21.7
		c0,7.6-1.6,14.3-4.7,20c-3.2,5.8-7.4,10.6-12.7,14.4c-5.4,4-11.6,7-18.8,9c-7.1,2-14.6,3-22.5,3c-8.4,0-16.6-1.3-24.7-3.9
		c-8.1-2.6-15.2-6.4-21.2-11.4c-5.5-4.7-9.9-10.2-13.2-16.5c-3.2-6.3-4.9-13.6-5-21.8h28.1c0.4,5.2,1.5,9.8,3.3,13.7
		c1.8,3.9,4.4,7.1,7.6,9.6c3.1,2.6,6.8,4.5,11.1,5.7c4.3,1.3,8.9,1.9,14,1.9c4.3,0,8.3-0.5,12-1.5s6.9-2.5,9.7-4.6
		c2.7-2,4.8-4.4,6.4-7.3c1.6-2.9,2.4-6.2,2.4-10C1480.9,397.4,1480.1,393.9,1478.5,390.8z"/>
	<path class="st0" d="M1565.8,368.8v53.3h82.4v23.2h-110.6V274.7h110V298h-81.8v48h70.5v22.7L1565.8,368.8L1565.8,368.8z"/>
	<path class="st0" d="M1709.3,406.1l-11.6,39.3h-29.3l55.5-170.6h25l54.6,170.6h-29.2l-11.5-39.3H1709.3z M1756,381.9l-19.6-67.5
		l-19.9,67.5H1756z"/>
	<path class="st0" d="M1852.5,379.1v66.2h-28.1V274.7h54.1c8.8,0.1,17,1.2,24.4,3.4c7.4,2.2,13.8,5.4,19.2,9.6
		c5.3,4.3,9.5,9.6,12.4,16c3,6.4,4.5,13.8,4.5,22.3c0,5.9-0.8,11.2-2.3,15.9c-1.5,4.8-3.7,9.1-6.4,12.9c-2.7,3.8-6,7.2-9.8,10.1
		s-8.1,5.4-12.8,7.5l36.4,71.4v1.5H1914l-32.7-66.2L1852.5,379.1L1852.5,379.1z M1878.9,356.1c5-0.1,9.5-0.8,13.5-2.3
		c4-1.4,7.4-3.5,10.3-6.3c2.5-2.3,4.5-5.2,5.9-8.7c1.4-3.4,2.1-7.3,2.1-11.7c0-4.9-0.8-9.2-2.3-12.9c-1.5-3.7-3.8-6.8-6.7-9.3
		c-2.7-2.3-6.1-4.1-10-5.3c-3.9-1.2-8.3-1.9-13.1-1.9h-26v58.5h26.3V356.1z"/>
	<path class="st0" d="M2077.4,415.4c-3.1,6.8-7.2,12.5-12.3,17.3c-5.2,4.8-11.3,8.6-18.3,11.2c-7.1,2.6-14.9,3.9-23.5,3.9
		c-7,0-13.5-1-19.4-2.9c-5.9-1.9-11.2-4.6-15.8-8.1c-4.5-3.3-8.3-7.2-11.7-11.9c-3.3-4.6-6.1-9.7-8.4-15.3c-2.3-5.5-4-11.4-5.1-17.8
		c-1.1-6.4-1.7-13.1-1.7-20v-23.3c0-6.6,0.5-13,1.6-19.2c1.1-6.2,2.7-12,4.9-17.5c2.3-6.1,5.4-11.6,9.1-16.6s8-9.2,12.8-12.7
		c4.6-3.2,9.7-5.7,15.3-7.5s11.7-2.7,18.3-2.7c9,0,17,1.3,24.1,4c7.1,2.7,13.1,6.4,18.1,11.2c5.1,4.9,9.1,10.9,12,17.8
		c2.9,7,4.8,14.7,5.7,23.2H2055c-0.5-5.1-1.4-9.7-2.9-13.8c-1.4-4.1-3.4-7.6-5.9-10.5c-2.6-2.9-5.7-5.1-9.5-6.6s-8.2-2.3-13.5-2.3
		c-3.7,0-7,0.5-9.9,1.5c-2.9,1-5.5,2.5-7.8,4.3c-3.1,2.3-5.7,5.2-7.8,8.8c-2.1,3.6-3.8,7.7-5.1,12.1c-1,3.9-1.8,8.1-2.3,12.5
		s-0.8,8.9-0.8,13.5v23.6c0,5.7,0.3,11.1,1,16.1s1.7,9.6,3.1,13.7c1.1,3.4,2.5,6.6,4.2,9.4s3.7,5.2,6,7.3c2.4,2.2,5.2,3.8,8.4,5
		c3.2,1.1,6.8,1.7,10.8,1.7c4.8,0,9.1-0.7,12.9-2.1s7-3.5,9.6-6.2c2.6-2.7,4.6-6,6.2-10c1.6-4,2.6-8.6,3-13.7h28.2
		C2082.5,401.1,2080.5,408.6,2077.4,415.4z"/>
	<path class="st0" d="M2194.8,445.3v-76.1h-57.4v76.1H2110V274.7h27.4v71.4h57.4v-71.4h27.5v170.6L2194.8,445.3L2194.8,445.3z"/>
</g>
</svg>
