<?xml version="1.0" encoding="utf-8"?>
<!-- Generator: Adobe Illustrator 28.2.0, SVG Export Plug-In . SVG Version: 6.00 Build 0)  -->
<svg version="1.1" id="Camada_1" xmlns="http://www.w3.org/2000/svg" xmlns:xlink="http://www.w3.org/1999/xlink" x="0px" y="0px"
	 viewBox="0 0 3200 480" style="enable-background:new 0 0 3200 480;" xml:space="preserve">
<style type="text/css">
	.st0{fill:#FFFFFF;}
</style>
<g id="Camada_1_00000060747317754959813870000010486894865060565128_">
</g>
<g id="Camada_2_00000107556921399758009110000017189302590935479470_">
	<path class="st0" d="M15.1,0l-15,15v465h345l15-15c0,0,0-315.7,0-465H15.1z M345,435.1H202.5V322.6h-30.1v112.5H29.9
		c0-74.7,0-164.8,0-255h142.5v60h30.1v-90H30v-135h315C345,148.7,345,388.1,345,435.1z"/>
</g>
<g>
	<path class="st0" d="M557.1,166.1l-11.6,39.3h-29.3l55.5-170.6h25l54.6,170.6h-29.2l-11.5-39.3H557.1z M603.8,141.9l-19.6-67.5
		l-19.9,67.5H603.8z"/>
	<path class="st0" d="M781.2,175.4c-3.1,6.8-7.2,12.5-12.3,17.3c-5.2,4.8-11.3,8.6-18.3,11.2c-7.1,2.6-14.9,3.9-23.5,3.9
		c-7,0-13.5-1-19.4-2.9c-5.9-1.9-11.2-4.6-15.8-8.1c-4.5-3.3-8.3-7.2-11.7-11.9c-3.3-4.6-6.1-9.7-8.4-15.3c-2.3-5.5-4-11.4-5.1-17.8
		c-1.1-6.4-1.7-13.1-1.7-20v-23.3c0-6.6,0.5-13,1.6-19.2c1.1-6.2,2.7-12,4.9-17.5c2.3-6.1,5.4-11.6,9.1-16.6c3.7-5,8-9.2,12.8-12.7
		c4.6-3.2,9.7-5.7,15.3-7.5c5.6-1.8,11.7-2.7,18.3-2.7c9,0,17,1.3,24.1,4c7.1,2.7,13.1,6.4,18.1,11.2c5.1,4.9,9.1,10.9,12,17.8
		c2.9,7,4.8,14.7,5.7,23.2h-28.1c-0.5-5.1-1.4-9.7-2.9-13.8c-1.4-4.1-3.4-7.6-5.9-10.5c-2.6-2.9-5.7-5.1-9.5-6.6s-8.2-2.3-13.5-2.3
		c-3.7,0-7,0.5-9.9,1.5c-2.9,1-5.5,2.5-7.8,4.3c-3.1,2.3-5.7,5.2-7.8,8.8c-2.1,3.6-3.8,7.7-5.1,12.1c-1,3.9-1.8,8.1-2.3,12.5
		c-0.5,4.4-0.8,8.9-0.8,13.5v23.6c0,5.7,0.3,11.1,1,16.1c0.7,5,1.7,9.6,3.1,13.7c1.1,3.4,2.5,6.6,4.2,9.4c1.7,2.8,3.7,5.2,6,7.3
		c2.4,2.2,5.2,3.8,8.4,5c3.2,1.1,6.8,1.7,10.8,1.7c4.8,0,9.1-0.7,12.9-2.1s7-3.5,9.6-6.2c2.6-2.7,4.6-6,6.2-10c1.6-4,2.6-8.6,3-13.7
		H787C786.3,161.1,784.3,168.6,781.2,175.4z"/>
	<path class="st0" d="M845.6,128.8v53.3H928v23.2H817.4V34.7h110V58h-81.8v48h70.5v22.7H845.6z"/>
	<path class="st0" d="M988.4,139.1v66.2h-28.1V34.7h54.1c8.8,0.1,17,1.2,24.4,3.4c7.4,2.2,13.8,5.4,19.2,9.6
		c5.3,4.3,9.5,9.6,12.4,16c3,6.4,4.5,13.8,4.5,22.3c0,5.9-0.8,11.2-2.3,15.9c-1.5,4.8-3.7,9.1-6.4,12.9c-2.7,3.8-6,7.2-9.8,10.1
		c-3.8,2.9-8.1,5.4-12.8,7.5l36.4,71.4v1.5h-30.1l-32.7-66.2H988.4z M1014.7,116.1c5-0.1,9.5-0.8,13.5-2.3c4-1.4,7.4-3.5,10.3-6.3
		c2.5-2.3,4.5-5.2,5.9-8.7c1.4-3.4,2.1-7.3,2.1-11.7c0-4.9-0.8-9.2-2.3-12.9c-1.5-3.7-3.8-6.8-6.7-9.3c-2.7-2.3-6.1-4.1-10-5.3
		c-3.9-1.2-8.3-1.9-13.1-1.9h-26v58.5H1014.7z"/>
	<path class="st0" d="M1092.1,34.7h30.8l32.5,118.1l2.8,10.2l2.9-10.3l32.7-118h30.7L1172,205.3h-27.4L1092.1,34.7z"/>
	<path class="st0" d="M1361.8,151.3c-1.2,6.4-3,12.5-5.2,18.2c-2.4,5.7-5.4,11-9,15.8c-3.6,4.8-7.7,8.9-12.4,12.4
		c-4.5,3.1-9.6,5.6-15.1,7.4c-5.5,1.8-11.5,2.7-18.1,2.7c-6.8,0-13-1-18.7-2.9c-5.7-1.9-10.7-4.6-15.2-7.9
		c-4.5-3.4-8.5-7.6-11.9-12.4c-3.4-4.8-6.2-10.2-8.5-15.9c-2.2-5.5-3.8-11.5-4.9-17.8c-1.1-6.3-1.6-12.8-1.6-19.4v-22.5
		c0-7,0.6-13.7,1.8-20.2c1.2-6.5,2.9-12.6,5.3-18.4c2.3-5.5,5.1-10.6,8.4-15.3c3.3-4.6,7.2-8.7,11.8-12.1c4.4-3.4,9.4-6,14.9-7.8
		c5.6-1.8,11.7-2.8,18.5-2.8c6.8,0,13,0.9,18.8,2.8c5.7,1.9,10.8,4.5,15.4,7.9c4.5,3.4,8.5,7.3,11.8,11.8c3.4,4.5,6.2,9.5,8.4,14.9
		c2.5,5.8,4.4,12,5.6,18.6c1.2,6.6,1.9,13.5,1.9,20.6v22.5C1363.6,138.2,1363,144.9,1361.8,151.3z M1334.5,96
		c-0.4-4.1-1.2-8.1-2.2-11.8c-1.2-4.3-2.7-8.2-4.6-11.8c-1.9-3.6-4.2-6.6-7-9.1c-2.4-2.2-5.2-3.9-8.3-5.2c-3.1-1.2-6.7-1.9-10.7-1.9
		c-3.8,0-7.3,0.6-10.3,1.8c-3,1.2-5.7,2.9-8,5c-2.7,2.6-5,5.6-6.9,9.2c-1.9,3.6-3.3,7.5-4.3,11.9c-0.9,3.8-1.6,7.7-2.1,11.9
		c-0.4,4.2-0.6,8.4-0.6,12.6v22.7c0,4.1,0.2,8.2,0.6,12.3c0.4,4.1,1.1,8,2,11.7c1,4.2,2.4,8.1,4.2,11.8s3.9,6.7,6.4,9.2
		c2.4,2.3,5.2,4.2,8.4,5.6c3.2,1.4,6.8,2.1,11,2.1c4,0,7.6-0.7,10.8-2c3.2-1.3,6-3.1,8.4-5.4c2.7-2.6,5-5.6,6.9-9.2
		c1.8-3.6,3.3-7.5,4.4-11.8c0.9-3.8,1.6-7.7,2.1-11.8c0.4-4.1,0.7-8.3,0.8-12.5v-22.7C1335.2,104.3,1334.9,100.1,1334.5,96z"/>
	<path class="st0" d="M1478.5,150.8c-1.6-3-3.9-5.8-6.9-8.2c-3.1-2.3-6.8-4.3-11.1-6.2c-4.3-1.8-9-3.5-14.2-5
		c-8-2.3-15.5-5.1-22.2-8.4c-6.8-3.3-12.5-7-17.3-11.2c-4.8-4.2-8.5-9-11.2-14.4c-2.7-5.4-4-11.4-4-18.1c0-7.3,1.6-13.8,4.7-19.6
		c3.1-5.8,7.3-10.8,12.7-14.9c5.3-4.1,11.5-7.2,18.6-9.3c7.1-2.1,14.5-3.2,22.3-3.2c8.3,0,16,1.3,23.1,3.8
		c7.1,2.5,13.4,6.1,18.7,10.6c5.3,4.6,9.5,10.1,12.6,16.5c3.1,6.4,4.6,13.4,4.6,21.2h-27.9c-0.4-4.3-1.3-8.2-2.8-11.8
		c-1.4-3.6-3.5-6.6-6-9.2c-2.7-2.5-5.9-4.5-9.7-5.9c-3.8-1.4-8.1-2.2-13.1-2.2c-4.3,0-8.3,0.6-11.9,1.7c-3.6,1.1-6.8,2.7-9.4,4.7
		c-2.7,2.1-4.7,4.6-6.2,7.6c-1.5,3-2.2,6.3-2.2,10c0.1,3.9,1.1,7.3,3,10.3c2,2.9,4.6,5.5,7.9,7.7c3.4,2.2,7.2,4.1,11.5,5.7
		s8.9,3.2,13.7,4.6c6,1.7,11.9,3.8,17.6,6.4c5.7,2.5,11,5.6,15.9,9.2c6,4.5,10.8,9.9,14.5,16.2c3.6,6.3,5.4,13.5,5.4,21.7
		c0,7.6-1.6,14.3-4.7,20c-3.2,5.8-7.4,10.6-12.7,14.4c-5.4,4-11.6,7-18.8,9c-7.1,2-14.6,3-22.5,3c-8.4,0-16.6-1.3-24.7-3.9
		c-8.1-2.6-15.2-6.4-21.2-11.4c-5.5-4.7-9.9-10.2-13.2-16.5c-3.2-6.3-4.9-13.6-5-21.8h28.1c0.4,5.2,1.5,9.8,3.3,13.7
		c1.8,3.9,4.4,7.1,7.6,9.6c3.1,2.6,6.8,4.5,11.1,5.7c4.3,1.2,8.9,1.9,14,1.9c4.3,0,8.3-0.5,12-1.5c3.7-1,6.9-2.5,9.7-4.6
		c2.7-2,4.8-4.4,6.4-7.3c1.6-2.9,2.4-6.2,2.4-10C1480.9,157.4,1480.1,153.9,1478.5,150.8z"/>
	<path class="st0" d="M1678.7,34.7h42.2c7.3,0,14.3,0.8,20.7,2.5c6.5,1.7,12.4,4,17.7,7c5.8,3,10.9,6.9,15.4,11.5
		c4.5,4.6,8.3,9.8,11.3,15.5c3.1,5.9,5.5,12.5,7.3,19.6c1.7,7.1,2.6,14.7,2.6,22.7v13.4c0,7.7-0.8,15.1-2.4,22
		c-1.6,6.9-3.9,13.2-6.9,18.9c-2.9,5.5-6.4,10.6-10.5,15.1c-4.1,4.5-8.7,8.4-13.7,11.6c-5.6,3.5-11.9,6.2-18.7,8.1
		c-6.8,1.9-14.2,2.8-22,2.8h-43.1V34.7z M1707.2,182.5h14.6c5,0,9.6-0.6,13.8-1.8c4.2-1.2,7.9-2.9,11.3-5.2c3.4-2.3,6.5-5.3,9.2-8.8
		c2.7-3.6,4.9-7.6,6.6-12.2c1.5-3.9,2.6-8.2,3.4-12.8c0.8-4.6,1.2-9.5,1.2-14.8v-13.6c0-5.2-0.4-10-1.2-14.6
		c-0.8-4.6-1.9-8.9-3.4-12.8c-1.9-4.8-4.4-9.1-7.5-12.9c-3.1-3.9-6.8-7-11.1-9.4c-3.1-1.8-6.6-3.2-10.5-4.2c-3.9-1-8.1-1.5-12.7-1.6
		h-13.7V182.5z"/>
	<path class="st0" d="M1928.8,34.7V58h-36.4v124.1h36.4v23.2h-100.5v-23.2h35.6V58h-35.6V34.7H1928.8z"/>
	<path class="st0" d="M2073.9,192.5c-3.4,2.6-7.1,4.9-11.4,7c-5.3,2.6-11.1,4.6-17.3,6c-6.3,1.4-12.9,2.2-20,2.2
		c-6.6,0-12.7-0.9-18.4-2.6c-5.7-1.7-10.9-4.1-15.5-7.3c-4.6-3.1-8.7-6.9-12.4-11.4s-6.7-9.4-9.1-14.9c-2.7-5.7-4.8-12-6.2-18.9
		c-1.4-6.9-2.1-14.1-2.2-21.7v-21.8c0.1-7.3,0.8-14.4,2.1-21.1c1.3-6.7,3.2-12.9,5.7-18.6c2.4-5.4,5.3-10.3,8.7-14.8
		c3.4-4.5,7.2-8.3,11.5-11.6c4.7-3.4,9.9-6.1,15.5-8c5.7-1.9,11.8-2.8,18.5-2.8c9,0,17,1.2,23.9,3.6c7,2.4,12.9,5.9,17.8,10.4
		c5,4.6,8.9,10.2,11.8,16.7c2.9,6.5,4.7,13.8,5.5,22h-27.7c-0.7-4.5-1.8-8.5-3.2-12.1s-3.3-6.7-5.6-9.2c-2.5-2.7-5.6-4.7-9.2-6.1
		s-7.9-2.1-12.8-2.1c-3.6,0-6.9,0.6-10,1.8c-3,1.2-5.8,2.9-8.2,5c-2.8,2.4-5.3,5.4-7.3,9c-2.1,3.6-3.8,7.5-5.1,11.9
		c-1.2,3.8-2,7.9-2.6,12.3c-0.5,4.4-0.8,8.9-0.8,13.5v22c0,5.4,0.4,10.5,1.1,15.4c0.7,4.8,1.9,9.3,3.3,13.5c1.2,3.1,2.6,6.1,4.2,8.8
		c1.6,2.7,3.5,5.2,5.7,7.3c2.7,2.7,5.9,4.8,9.6,6.3c3.6,1.5,7.8,2.3,12.4,2.3c2.7,0,5.5-0.2,8.3-0.5s5.5-0.9,8.1-1.7
		c2.5-0.8,4.8-1.8,6.9-3c2.1-1.2,3.8-2.6,5-4.3l0.1-34.1h-30.9v-21.9h58.6l0.2,65.3C2080.1,187.1,2077.2,189.9,2073.9,192.5z"/>
	<path class="st0" d="M2216.8,34.7V58h-36.4v124.1h36.4v23.2h-100.5v-23.2h35.6V58h-35.6V34.7H2216.8z"/>
	<path class="st0" d="M2324.5,58v147.3h-28V58h-52.3V34.7h132.9V58H2324.5z"/>
	<path class="st0" d="M2429.4,166.1l-11.6,39.3h-29.3l55.5-170.6h25l54.6,170.6h-29.2l-11.5-39.3H2429.4z M2476.1,141.9l-19.6-67.5
		l-19.9,67.5H2476.1z"/>
	<path class="st0" d="M2648.9,34.7V58h-36.4v124.1h36.4v23.2h-100.5v-23.2h35.6V58h-35.6V34.7H2648.9z"/>
	<path class="st0" d="M2774.7,150.8c-1.6-3-3.9-5.8-6.9-8.2c-3.1-2.3-6.8-4.3-11.1-6.2c-4.3-1.8-9-3.5-14.2-5
		c-8-2.3-15.5-5.1-22.2-8.4c-6.8-3.3-12.5-7-17.3-11.2c-4.8-4.2-8.5-9-11.2-14.4c-2.7-5.4-4-11.4-4-18.1c0-7.3,1.6-13.8,4.7-19.6
		c3.1-5.8,7.3-10.8,12.7-14.9c5.3-4.1,11.5-7.2,18.6-9.3c7.1-2.1,14.5-3.2,22.3-3.2c8.3,0,16,1.3,23.1,3.8
		c7.1,2.5,13.4,6.1,18.7,10.6c5.3,4.6,9.5,10.1,12.6,16.5c3.1,6.4,4.6,13.4,4.6,21.2h-27.9c-0.4-4.3-1.3-8.2-2.8-11.8
		c-1.4-3.6-3.5-6.6-6-9.2c-2.7-2.5-5.9-4.5-9.7-5.9c-3.8-1.4-8.1-2.2-13.1-2.2c-4.3,0-8.3,0.6-11.9,1.7c-3.6,1.1-6.8,2.7-9.4,4.7
		c-2.7,2.1-4.7,4.6-6.2,7.6c-1.5,3-2.2,6.3-2.2,10c0.1,3.9,1.1,7.3,3,10.3c2,2.9,4.6,5.5,7.9,7.7c3.4,2.2,7.2,4.1,11.5,5.7
		s8.9,3.2,13.7,4.6c6,1.7,11.9,3.8,17.6,6.4c5.7,2.5,11,5.6,15.9,9.2c6,4.5,10.8,9.9,14.5,16.2c3.6,6.3,5.4,13.5,5.4,21.7
		c0,7.6-1.6,14.3-4.7,20c-3.2,5.8-7.4,10.6-12.7,14.4c-5.4,4-11.6,7-18.8,9c-7.1,2-14.6,3-22.5,3c-8.4,0-16.6-1.3-24.7-3.9
		c-8.1-2.6-15.2-6.4-21.2-11.4c-5.5-4.7-9.9-10.2-13.2-16.5c-3.2-6.3-4.9-13.6-5-21.8h28.1c0.4,5.2,1.5,9.8,3.3,13.7
		c1.8,3.9,4.4,7.1,7.6,9.6c3.1,2.6,6.8,4.5,11.1,5.7c4.3,1.2,8.9,1.9,14,1.9c4.3,0,8.3-0.5,12-1.5c3.7-1,6.9-2.5,9.7-4.6
		c2.7-2,4.8-4.4,6.4-7.3c1.6-2.9,2.4-6.2,2.4-10C2777.1,157.4,2776.3,153.9,2774.7,150.8z"/>
	<path class="st0" d="M557.6,368.8v53.3H640v23.2H529.3V274.7h110V298h-81.8v48h70.5v22.7H557.6z"/>
	<path class="st0" d="M846.1,445.3H818V274.7h57.1c8.6,0.1,16.5,1.4,23.7,3.9c7.2,2.5,13.5,6.1,18.7,10.7
		c5.2,4.6,9.3,10.2,12.2,16.8c2.9,6.6,4.3,13.9,4.3,22.1c0,7.9-1.4,15-4.3,21.4c-2.9,6.4-7,11.8-12.2,16.3
		c-5.2,4.6-11.5,8.2-18.7,10.7c-7.2,2.5-15.1,3.8-23.7,3.8h-28.9V445.3z M875.1,357.3c4.8-0.1,9-0.8,12.8-2.3c3.8-1.4,7-3.5,9.7-6
		c2.7-2.6,4.7-5.6,6-9.1c1.4-3.5,2.1-7.3,2.1-11.5c0-4.5-0.7-8.7-2.1-12.4c-1.4-3.7-3.4-6.9-6-9.7c-2.7-2.7-5.9-4.8-9.7-6.3
		c-3.8-1.5-8.1-2.3-12.8-2.3h-28.9v59.6H875.1z"/>
	<path class="st0" d="M989.7,368.8v53.3h82.4v23.2H961.4V274.7h110V298h-81.8v48h70.5v22.7H989.7z"/>
	<path class="st0" d="M1190.4,390.8c-1.6-3-3.9-5.8-6.9-8.2c-3.1-2.3-6.8-4.3-11.1-6.2c-4.3-1.8-9-3.5-14.2-5
		c-8-2.3-15.5-5.1-22.2-8.4c-6.8-3.3-12.5-7-17.3-11.2c-4.8-4.2-8.5-9-11.2-14.4c-2.7-5.4-4-11.4-4-18.1c0-7.3,1.6-13.8,4.7-19.6
		c3.1-5.8,7.3-10.8,12.7-14.9c5.3-4.1,11.5-7.2,18.6-9.3c7.1-2.1,14.5-3.2,22.3-3.2c8.3,0,16,1.3,23.1,3.8
		c7.1,2.5,13.4,6.1,18.7,10.6c5.3,4.6,9.5,10.1,12.6,16.5c3.1,6.4,4.6,13.4,4.6,21.2h-27.9c-0.4-4.3-1.3-8.2-2.8-11.8
		c-1.4-3.6-3.5-6.6-6-9.2c-2.7-2.5-5.9-4.5-9.7-5.9c-3.8-1.4-8.1-2.2-13.1-2.2c-4.3,0-8.3,0.6-11.9,1.7c-3.6,1.1-6.8,2.7-9.4,4.7
		c-2.7,2.1-4.7,4.6-6.2,7.6c-1.5,3-2.2,6.3-2.2,10c0.1,3.9,1.1,7.3,3,10.3c2,2.9,4.6,5.5,7.9,7.7c3.4,2.2,7.2,4.1,11.5,5.7
		s8.9,3.2,13.7,4.6c6,1.7,11.9,3.8,17.6,6.4c5.7,2.5,11,5.6,15.9,9.2c6,4.5,10.8,9.9,14.5,16.2c3.6,6.3,5.4,13.5,5.4,21.7
		c0,7.6-1.6,14.3-4.7,20c-3.2,5.8-7.4,10.6-12.7,14.4c-5.4,4-11.6,7-18.8,9c-7.1,2-14.6,3-22.5,3c-8.4,0-16.6-1.3-24.7-3.9
		c-8.1-2.6-15.2-6.4-21.2-11.4c-5.5-4.7-9.9-10.2-13.2-16.5c-3.2-6.3-4.9-13.6-5-21.8h28.1c0.4,5.2,1.5,9.8,3.3,13.7
		c1.8,3.9,4.4,7.1,7.6,9.6c3.1,2.6,6.8,4.5,11.1,5.7c4.3,1.3,8.9,1.9,14,1.9c4.3,0,8.3-0.5,12-1.5c3.7-1,6.9-2.5,9.7-4.6
		c2.7-2,4.8-4.4,6.4-7.3c1.6-2.9,2.4-6.2,2.4-10C1192.9,397.4,1192,393.9,1190.4,390.8z"/>
	<path class="st0" d="M1363.1,391.4c-1.1,5.9-2.7,11.6-4.8,16.9c-1.9,4.7-4.2,9.1-6.9,13.4c-2.7,4.2-5.9,8-9.6,11.2l28.7,25.1
		l-18.6,16.9l-32.9-29.4c-2.7,0.7-5.4,1.2-8.1,1.6c-2.7,0.4-5.6,0.6-8.6,0.6c-7,0-13.4-1-19.2-3c-5.8-2-11-4.8-15.6-8.3
		c-4.6-3.6-8.6-7.9-12.1-12.8c-3.4-5-6.3-10.3-8.4-16c-2-5.2-3.6-10.7-4.6-16.5c-1-5.8-1.5-11.6-1.5-17.5V350
		c0-6.4,0.5-12.7,1.5-18.8c1-6.1,2.5-11.9,4.5-17.4c2.1-6.2,4.9-11.8,8.4-17c3.5-5.2,7.6-9.6,12.5-13.2c4.6-3.5,9.8-6.3,15.5-8.3
		s12.1-3,19-3c7,0,13.3,1,19.2,3c5.8,2,11.1,4.7,15.8,8.3c5,3.8,9.4,8.4,13.1,13.8c3.7,5.4,6.7,11.3,9,17.8
		c1.9,5.3,3.3,10.9,4.2,16.8c0.9,5.9,1.4,11.9,1.5,18v23.4C1364.8,379.5,1364.2,385.5,1363.1,391.4z M1335.7,336.5
		c-0.5-4.4-1.3-8.6-2.3-12.5c-1-4.1-2.4-7.8-4.3-11.2c-1.8-3.4-4-6.4-6.6-8.9c-2.4-2.3-5.3-4.2-8.7-5.6c-3.4-1.4-7.2-2.1-11.5-2.1
		c-4.2,0-7.9,0.7-11.1,2c-3.2,1.3-6,3.2-8.4,5.5c-2.9,2.8-5.3,6.2-7.1,10.3c-1.8,4-3.2,8.4-4.2,13.2c-0.8,3.6-1.3,7.3-1.7,11.1
		c-0.4,3.8-0.5,7.7-0.5,11.5v23.7c0,3.5,0.2,7.1,0.6,10.8c0.4,3.7,1,7.2,1.9,10.7c1,4.4,2.4,8.4,4.3,12.1c1.8,3.7,4.2,6.9,7,9.4
		c2.3,2.3,5.1,4.2,8.3,5.5c3.2,1.3,6.9,2,11,2c4.2,0,8-0.7,11.2-2.1c3.3-1.4,6.2-3.2,8.7-5.4c2.8-2.6,5.2-5.7,7-9.3
		s3.4-7.5,4.6-11.7c0.9-3.6,1.5-7.3,1.9-11c0.4-3.8,0.6-7.4,0.6-11v-23.7C1336.4,345.4,1336.2,340.9,1335.7,336.5z"/>
	<path class="st0" d="M1503.1,388.8c0,8.8-1.3,16.9-4,24.1c-2.7,7.2-6.5,13.4-11.4,18.6c-5,5.2-11,9.1-18,12
		c-7,2.8-14.8,4.2-23.5,4.2c-8.5,0-16.2-1.4-23.1-4.2c-6.9-2.8-12.7-6.7-17.6-11.9c-4.9-5.2-8.7-11.4-11.4-18.6s-4.1-15.3-4.2-24.1
		l0.2-114.1h27.8l0.2,114.1c0.1,5.4,0.7,10.3,2,14.8c1.2,4.5,3.1,8.3,5.5,11.4c2.3,3,5.2,5.3,8.6,7c3.4,1.7,7.4,2.5,11.9,2.5
		c4.6,0,8.7-0.8,12.2-2.5c3.6-1.7,6.5-4.1,9-7.2c2.4-3.2,4.3-7,5.5-11.4c1.2-4.4,2-9.3,2.1-14.6l0.2-114.1h27.8L1503.1,388.8z"/>
	<path class="st0" d="M1640.8,274.7V298h-36.4v124.1h36.4v23.2h-100.5v-23.2h35.6V298h-35.6v-23.3H1640.8z"/>
	<path class="st0" d="M1766.5,390.8c-1.6-3-3.9-5.8-6.9-8.2c-3.1-2.3-6.8-4.3-11.1-6.2c-4.3-1.8-9-3.5-14.2-5
		c-8-2.3-15.5-5.1-22.2-8.4c-6.8-3.3-12.5-7-17.3-11.2c-4.8-4.2-8.5-9-11.2-14.4c-2.7-5.4-4-11.4-4-18.1c0-7.3,1.6-13.8,4.7-19.6
		c3.1-5.8,7.3-10.8,12.7-14.9c5.3-4.1,11.5-7.2,18.6-9.3c7.1-2.1,14.5-3.2,22.3-3.2c8.3,0,16,1.3,23.1,3.8
		c7.1,2.5,13.4,6.1,18.7,10.6c5.3,4.6,9.5,10.1,12.6,16.5c3.1,6.4,4.6,13.4,4.6,21.2H1769c-0.4-4.3-1.3-8.2-2.8-11.8
		c-1.4-3.6-3.5-6.6-6-9.2c-2.7-2.5-5.9-4.5-9.7-5.9c-3.8-1.4-8.1-2.2-13.1-2.2c-4.3,0-8.3,0.6-11.9,1.7c-3.6,1.1-6.8,2.7-9.4,4.7
		c-2.7,2.1-4.7,4.6-6.2,7.6c-1.5,3-2.2,6.3-2.2,10c0.1,3.9,1.1,7.3,3,10.3c2,2.9,4.6,5.5,7.9,7.7c3.4,2.2,7.2,4.1,11.5,5.7
		s8.9,3.2,13.7,4.6c6,1.7,11.9,3.8,17.6,6.4c5.7,2.5,11,5.6,15.9,9.2c6,4.5,10.8,9.9,14.5,16.2c3.6,6.3,5.4,13.5,5.4,21.7
		c0,7.6-1.6,14.3-4.7,20c-3.2,5.8-7.4,10.6-12.7,14.4c-5.4,4-11.6,7-18.8,9c-7.1,2-14.6,3-22.5,3c-8.4,0-16.6-1.3-24.7-3.9
		c-8.1-2.6-15.2-6.4-21.2-11.4c-5.5-4.7-9.9-10.2-13.2-16.5c-3.2-6.3-4.9-13.6-5-21.8h28.1c0.4,5.2,1.5,9.8,3.3,13.7
		c1.8,3.9,4.4,7.1,7.6,9.6c3.1,2.6,6.8,4.5,11.1,5.7c4.3,1.3,8.9,1.9,14,1.9c4.3,0,8.3-0.5,12-1.5c3.7-1,6.9-2.5,9.7-4.6
		c2.7-2,4.8-4.4,6.4-7.3c1.6-2.9,2.4-6.2,2.4-10C1769,397.4,1768.1,393.9,1766.5,390.8z"/>
	<path class="st0" d="M1853.3,406.1l-11.6,39.3h-29.3l55.5-170.6h25l54.6,170.6h-29.2l-11.5-39.3H1853.3z M1900,381.9l-19.6-67.5
		l-19.9,67.5H1900z"/>
</g>
</svg>
